# xmcd
#
# Track frame offsets: 
#        150
#        16757
#        33375
#        53890
#        87602
#        116401
#        138825
#        175066
#        191674
#
# Disc length: 2852 seconds
#
# Revision: 3
# Processed by: cddbd v1.5.2PL0 Copyright (c) Steve Scherf et al.
# Submitted via: ExactAudioCopy v1.0b6
#
DISCID=6f0b2209
DTITLE=Visage - Dreamer I Know
DYEAR=2013
DGENRE=Synthpop
TTITLE0=Dreamer I Know (Radio Edit)
TTITLE1=Digital Age
TTITLE2=Dreamer I Know (Sare Havlicek 'Dreaming Of Me' Remix)
TTITLE3=Dreamer I Know (Max Essa Remix)
TTITLE4=Dreamer I Know (Extended Version)
TTITLE5=Dreamer I Know (Mick MacNeil Remix)
TTITLE6=Dreamer I Know (The Skintologists Strange Version)
TTITLE7=Dreamer I Know (Instrumental)
TTITLE8=Digital Age (Sare Havlicek Kong Mix)
EXTD=
EXTT0=
EXTT1=
EXTT2=
EXTT3=
EXTT4=
EXTT5=
EXTT6=
EXTT7=
EXTT8=
PLAYORDER=
